<svg version="1" xmlns="http://www.w3.org/2000/svg" width="933.333" height="933.333" viewBox="0 0 700.000000 700.000000"><path d="M329 10.1c-3 .5-9.3 2.7-13.9 5-13.5 6.6-24.1 18.9-28.2 32.6l-1.2 4.3h-32.6c-32 0-32.7.1-37.6 2.4-5.5 2.5-11 8.1-13.1 13.3L201 71h-39.8c-43.8 0-46.1.3-53.9 6-2.8 2-5.2 5.2-7.2 9.2L97 92.3l.1 277.6c0 209.9.3 278.4 1.2 280.8 2.2 6 7.2 11.7 12.8 14.8l5.4 3h445l4.1-2.2c6.5-3.5 10-6.9 12.8-12.5l2.6-5.2V472.4c0-139.7-.3-176.4-1.2-177.1-2.7-2.1-4.8-2.1-7-.3l-2.3 1.8-.2 175.2c-.2 172.5-.3 175.2-2.2 178.4-1.1 1.7-3.8 4.2-5.9 5.4l-4 2.2H339c-160 0-219.7-.3-221.3-1.1-3.4-1.7-7.8-6.1-8.8-8.8-.6-1.4-.9-114.1-.9-278.3 0-242.6.2-276.3 1.5-278.8.8-1.6 3.2-4.2 5.2-5.7l3.6-2.8 40.9-.3 40.8-.3v27l-26.7.3c-29.6.3-30.4.5-35.5 7.2l-2.3 3.1v501l2.4 3.4c1.3 1.8 4.2 4.2 6.5 5.2 4 1.8 11 1.9 194.6 1.9s190.6-.1 194.6-1.9c2.3-1 5.2-3.4 6.5-5.2l2.4-3.4v-501l-2.3-3.3c-4.6-6.4-5.9-6.7-34.9-7l-26.3-.3v-27l40.4.3c39.1.3 40.6.4 43.2 2.4 1.5 1.1 3.7 3.3 4.8 4.8 2.1 2.7 2.1 4 2.6 69.3.5 64.3.6 66.5 2.4 67.9 2.6 1.8 5.1 1.8 7-.2 1.4-1.4 1.6-8.9 1.6-67.7-.1-52-.4-67-1.4-69.9-2-5.6-6.9-11.1-12.8-14.4l-5.3-2.9-42.1-.3-42.2-.3-1.3-3.2c-2.1-5-7.9-10.8-13.4-13.3-4.9-2.3-5.6-2.4-37.3-2.4H393l-1.1-2.8c-8.3-20.5-18.8-31.4-36-37.2-6.8-2.3-19.4-3.2-26.9-1.9zm17.6 46.3c3.8 3.8 4.4 7.7 1.9 12.6-1.7 3.3-6.1 6-9.7 6-3.5 0-8.3-3.4-9.7-6.9-3.1-7.2 2.2-15.1 10.1-15.1 3.2 0 4.7.7 7.4 3.4zm-146.4 69.4c.5 6.7 3.1 11.2 8.1 14 3 1.6 11.6 1.7 130.7 1.7 125.7 0 127.5 0 130.9-2 5.2-3.1 7.5-6.9 8.1-13.3l.5-5.7 24.4-.3c20.6-.2 24.8 0 26.7 1.3l2.4 1.5v246.7c0 228.1-.1 246.8-1.7 248.5-1.5 1.7-8.8 1.8-191.1 1.8-175 0-189.7-.1-191.4-1.7-1.7-1.5-1.8-10.6-1.8-248.4V123.1l2.2-1.5c1.9-1.4 6.2-1.6 26.9-1.6h24.7l.4 5.8z"/><path d="M257.2 185.4l-4.7 4.3-4.5-2.9-4.5-2.9-25 .3c-24.3.3-25.1.4-28.3 2.6-6.4 4.6-6.7 6-6.7 33.2 0 24 0 24.6 2.4 28.3 4.4 7.1 6.8 7.7 33.7 7.7 22.5 0 23.8-.1 27.6-2.2 2.1-1.2 4.9-3.8 6.1-5.8 2.1-3.3 2.2-4.9 2.5-24.7l.4-21.2 5.9-6.5c6.5-7.1 7.4-10.4 3.7-13-3.1-2.2-3.3-2.1-8.6 2.8zm-14.7 11c1.8 1.3 1.8 1.4-.1 3.8-1 1.3-6.4 7.2-11.8 13l-9.9 10.6-5.6-6.1c-8.7-9.4-9-9.7-11.3-9.7-2.9 0-5.8 2.8-5.8 5.7 0 3.4 19.3 24.3 22.4 24.3 2.2 0 10.2-7.4 20.4-19l3.1-3.5.1 13.7c0 12.6-.2 13.8-1.9 14.8-1.2.6-10.5 1-23.4 1-18.7 0-21.6-.2-22.8-1.7-1.1-1.2-1.4-6.4-1.4-23.3s.3-22.1 1.4-23.3c1.2-1.5 4.1-1.7 23-1.7 16.8 0 22.1.3 23.6 1.4zM288.5 195c-1.5 1.6-1.7 2.6-.9 4.8l.9 2.7h205l.9-2.7c.8-2.2.6-3.2-.9-4.8-1.8-2-2.6-2-102.5-2s-100.7 0-102.5 2zM291 236.9c-3.6 1-4.9 5.4-2.5 8.1 1.8 2 2.6 2 102.5 2s100.7 0 102.5-2c2.4-2.7 1.1-7.1-2.5-8.1-1.4-.4-46.4-.7-100-.7s-98.6.3-100 .7zM256.3 295.2c-4 3.9-4.3 4.1-6 2.5-4.7-4.1-8.3-4.7-31.2-4.7-13.1 0-23.1.4-24.8 1.1-4.2 1.5-9.2 6.8-10.3 10.9-.5 1.9-1 13.2-1 25 0 20.4.1 21.8 2.3 26 1.2 2.5 3.7 5.5 5.6 6.7 3.3 2.2 4.1 2.3 28.6 2.3s25.3-.1 28.5-2.3c6.9-4.6 7.5-6.8 7.8-30.1l.3-20.9 6-6.6c6-6.6 7.3-10.3 4.7-12.9-2.4-2.4-6.2-1.3-10.5 3zm-14.2 10.7l2.4 1.9-11.9 12.6-11.9 12.7-7.6-8.1c-4.2-4.4-8.3-8-9.1-8-.9 0-2.6.7-3.8 1.6-4.1 2.9-2.9 5.8 7.6 17.5 5.3 6 10.4 11 11.2 11 3.5.3 5-.8 14.7-10.9l10.2-10.7v13c.1 8.9-.3 13.5-1.1 14.3-.9.9-7.5 1.2-23.4 1.2-21.9 0-22.3 0-23.8-2.2-1.3-1.9-1.6-5.7-1.6-22 0-20.3.6-24.3 3.7-25.1 1-.3 10.9-.5 21.9-.6 18.4-.1 20.4.1 22.5 1.8zM289 304c-1.1 1.1-2 2.7-2 3.5 0 .8.9 2.4 2 3.5 2 2 3.3 2 102 2s100 0 102-2c1.1-1.1 2-2.7 2-3.5 0-.8-.9-2.4-2-3.5-2-2-3.3-2-102-2s-100 0-102 2zM288.7 347.8c-2.2 2.5-2.1 4.8.3 7.2 2 2 3.3 2 102 2s100 0 102-2c2.5-2.5 2.6-5.2.2-7.3-1.7-1.6-10.2-1.7-102.4-1.7-96.1 0-100.6.1-102.1 1.8zM256.8 404.4l-4 4.5-4-3-4.1-2.9h-25.2c-24.5 0-25.3.1-28.6 2.3-1.9 1.2-4.4 4.2-5.7 6.7-2.2 4.4-2.3 5.2-2 28 .3 22.5.4 23.7 2.6 27.2 1.3 2.1 4 4.5 6.6 5.7 3.9 1.9 6 2.1 26.9 2.1 24.8 0 27-.4 31.9-5.6 4-4.4 4.8-9.2 4.8-29.8v-18.9l6-6.3c6.3-6.6 7.4-9.8 4.4-12.8-2.6-2.6-5.3-1.8-9.6 2.8zM243 415.5c1.4 1.6 1.3 1.7-14.8 19l-7.4 7.9-7.3-7.7c-7.7-8.1-10.2-9.2-13.7-6-3.4 3-2.1 5.6 8.3 17.1 7.4 8.2 10.7 11.2 12.4 11.2 1.7 0 5.3-3.1 12.9-11.3l10.6-11.2v13.7c0 12.6-.2 13.8-1.9 14.8-1.2.6-10.4 1-22.8 1-16.5 0-21.3-.3-22.9-1.4-1.8-1.3-1.9-2.8-1.9-23.4 0-17.1.3-22.3 1.4-23.5 1.2-1.5 4.1-1.7 23.6-1.7 18.6 0 22.5.2 23.5 1.5zM291 411.9c-3.6 1-4.9 5.4-2.5 8.1 1.8 2 2.6 2 102.5 2s100.7 0 102.5-2c2.4-2.7 1.1-7.1-2.5-8.1-1.4-.4-46.4-.7-100-.7s-98.6.3-100 .7zM289 457c-2.4 2.4-2.5 3.8-.4 6.8l1.5 2.2h201.8l1.5-2.2c2.1-3 2-4.4-.4-6.8-2-2-3.3-2-102-2s-100 0-102 2zM192.3 514.1c-2.4 1.2-5.2 3.7-6.5 5.7-2.2 3.5-2.3 4.8-2.6 27.2-.3 22.8-.2 23.6 2 27.9 4.4 8.5 4.5 8.6 32.9 8.9 28.3.3 30 0 34.7-7.1l2.7-4.1V548c0-24.6 0-24.6-2.5-28.3-4.8-7.1-7.6-7.7-33.6-7.7-21.2 0-23.2.2-27.1 2.1zm51.1 11.1c2.4 3.4 2.3 43.3-.1 46-1.5 1.6-3.6 1.8-24.4 1.8-21.5 0-22.9-.1-23.9-1.9-.6-1.2-1-10.5-1-23.2 0-18.4.2-21.5 1.7-23.1 1.5-1.6 3.6-1.8 23.9-1.8 21.9 0 22.3 0 23.8 2.2zM288.7 522.8c-2.2 2.5-2.1 4.8.3 7.2 2 2 3.3 2 102 2s100 0 102-2c2.5-2.5 2.6-5.2.2-7.3-1.7-1.6-10.2-1.7-102.4-1.7-96.1 0-100.6.1-102.1 1.8zM288.7 566.8c-2.1 2.3-2.2 4.6-.1 6.6 1.4 1.4 12 1.6 102.4 1.6s101-.2 102.4-1.6c2-2 2-4.8 0-6.8-1.4-1.4-12-1.6-102.3-1.6-96.4 0-100.9.1-102.4 1.8zM571.9 238.7c-2 2.3-2.5 39.7-.6 43.3 1.4 2.8 5.9 3.9 8.3 1.9 1.9-1.5 2.1-43.8.2-45.7-1.7-1.7-6.3-1.5-7.9.5z"/></svg>